<svg xmlns="http://www.w3.org/2000/svg" viewBox="0 0 512 512" role="img" aria-hidden="true">
  <path fill="#fff" d="M256 32C141.12 32 48 125.12 48 240s93.12 208 208 208 208-93.12 208-208S370.88 32 256 32zm0 368c-88.22 0-160-71.78-160-160S167.78 80 256 80s160 71.78 160 160-71.78 160-160 160zm-80-160c-17.67 0-32-14.33-32-32s14.33-32 32-32 32 14.33 32 32-14.33 32-32 32zm160 0c-17.67 0-32-14.33-32-32s14.33-32 32-32 32 14.33 32 32-14.33 32-32 32zm-80 80c-17.67 0-32-14.33-32-32s14.33-32 32-32 32 14.33 32 32-14.33 32-32 32zm0-160c-17.67 0-32-14.33-32-32s14.33-32 32-32 32 14.33 32 32-14.33 32-32 32z"/>
</svg>