<?xml version="1.0" encoding="UTF-8"?>
<svg id="_レイヤー_2" data-name="レイヤー 2" xmlns="http://www.w3.org/2000/svg" viewBox="0 0 2438.71 325.29">
  <defs>
    <style>
      .cls-1 {
        fill: #fff;
        stroke-width: 0px;
      }
    </style>
  </defs>
  <g id="_レイヤー_1-2" data-name="レイヤー 1">
    <g>
      <g>
        <path class="cls-1" d="m448.42,169.69c0-40.02,31.17-69.39,69.79-69.39s69.79,29.36,69.79,69.39-30.97,69.39-69.79,69.39-69.79-29.56-69.79-69.39Zm15.28,0c0,30.77,24.34,55.31,54.51,55.31s54.5-24.54,54.5-55.31-24.34-55.31-54.5-55.31-54.51,24.53-54.51,55.31Z"/>
        <path class="cls-1" d="m616.73,153.2h14.48v9.05c1.41-2.21,7.64-11.06,18.9-11.06,4.43,0,9.25,1.61,12.87,3.42l-6.84,13.07c-3.22-2.21-6.23-2.81-8.45-2.81-5.83,0-9.45,2.41-11.67,5.23-2.41,3.22-4.83,8.85-4.83,22.53v44.05h-14.48v-83.47Z"/>
        <path class="cls-1" d="m747.25,176.53c-7.64-9.65-18.7-12.47-26.15-12.47-15.49,0-29.56,10.86-29.56,31.17s14.48,30.97,29.36,30.97c8.65,0,19.31-3.82,26.95-13.07v17.3c-9.05,6.64-18.7,8.65-26.55,8.65-25.95,0-44.65-18.5-44.65-43.64s18.91-44.25,44.65-44.25c13.27,0,21.92,5.23,25.95,8.04v17.3Z"/>
        <path class="cls-1" d="m776.4,90.05h14.48v72.81c2.62-3.42,10.06-11.67,23.93-11.67,9.86,0,18.91,4.02,23.93,11.47,4.22,6.23,4.83,13.07,4.83,22.32v51.69h-14.48v-51.29c0-5.03-.4-10.86-3.82-15.28-2.81-3.62-7.24-6.04-13.68-6.04-5.03,0-10.46,1.41-14.68,6.44-5.63,6.64-6.03,16.49-6.03,22.53v43.65h-14.48V90.05Z"/>
        <path class="cls-1" d="m947.75,215.35c-2.42,4.63-6.04,9.65-10.26,13.47-7.64,6.84-17.1,10.26-27.75,10.26-20.11,0-41.23-12.67-41.23-43.64,0-24.94,15.28-44.25,40.42-44.25,16.29,0,26.55,8.04,31.58,15.29,5.23,7.44,8.24,20.31,7.85,31.37h-64.96c.2,17.3,12.07,28.36,26.55,28.36,6.84,0,12.27-2.01,17.1-6.03,3.82-3.22,6.84-7.44,8.65-11.46l12.07,6.64Zm-14.28-29.56c-2.42-13.08-12.27-21.72-24.54-21.72s-22.32,9.25-24.54,21.72h49.07Z"/>
        <path class="cls-1" d="m1012.49,172.51c-2.01-4.83-6.24-8.45-11.67-8.45s-10.06,3.02-10.06,9.45c0,6.03,4.02,7.85,13.47,11.87,12.07,5.03,17.7,8.85,20.92,12.87,3.62,4.42,4.43,8.85,4.43,13.47,0,17.5-12.67,27.35-28.76,27.35-3.42,0-22.12-.4-29.16-21.32l12.47-5.23c1.61,4.42,6.44,13.67,16.89,13.67,9.45,0,13.68-7.04,13.68-13.27,0-7.84-5.63-10.46-13.47-13.87-10.06-4.43-16.49-7.65-20.31-12.27-3.22-4.02-3.82-8.04-3.82-12.27,0-14.68,10.26-23.33,24.33-23.33,4.42,0,16.29.81,22.93,15.08l-11.87,6.24Z"/>
        <path class="cls-1" d="m1075.63,166.47v70.19h-14.48v-70.19h-8.85v-13.27h8.85v-30.17h14.48v30.17h14.48v13.27h-14.48Z"/>
        <path class="cls-1" d="m1118.06,153.2h14.48v9.05c1.41-2.21,7.64-11.06,18.9-11.06,4.42,0,9.25,1.61,12.87,3.42l-6.84,13.07c-3.22-2.21-6.24-2.81-8.45-2.81-5.83,0-9.45,2.41-11.67,5.23-2.41,3.22-4.82,8.85-4.82,22.53v44.05h-14.48v-83.47Z"/>
        <path class="cls-1" d="m1243.95,153.2h14.48v83.47h-14.48v-11.67c-4.83,6.24-13.88,14.08-28.56,14.08-21.12,0-40.63-14.88-40.63-44.25s19.31-43.65,40.63-43.65c16.09,0,24.74,8.85,28.56,13.88v-11.87Zm-54.3,41.63c0,17.9,10.05,31.37,27.35,31.37s27.76-14.68,27.76-31.17c0-21.52-14.88-30.97-27.76-30.97-14.28,0-27.35,10.46-27.35,30.77Z"/>
        <path class="cls-1" d="m1445.75,132.08c-4.22-4.22-10.66-9.25-17.5-12.47-7.04-3.22-15.29-5.23-23.13-5.23-30.97,0-53.9,24.94-53.9,55.91,0,36.4,29.56,54.71,54.1,54.71,9.05,0,17.9-2.62,24.94-6.24,7.64-3.82,13.07-8.85,15.48-11.26v18.51c-14.88,10.66-30.37,13.07-40.42,13.07-39.82,0-69.39-30.17-69.39-68.98s29.97-69.79,70.19-69.79c8.04,0,23.53,1.01,39.62,13.27v18.51Z"/>
        <path class="cls-1" d="m1536.24,153.2h14.48v83.47h-14.48v-11.67c-4.83,6.24-13.88,14.08-28.56,14.08-21.12,0-40.62-14.88-40.62-44.25s19.31-43.65,40.62-43.65c16.09,0,24.74,8.85,28.56,13.88v-11.87Zm-54.31,41.63c0,17.9,10.06,31.37,27.36,31.37s27.75-14.68,27.75-31.17c0-21.52-14.88-30.97-27.75-30.97-14.28,0-27.36,10.46-27.36,30.77Z"/>
        <path class="cls-1" d="m1581.88,153.2h14.48v9.65c2.61-3.42,10.05-11.67,23.93-11.67,9.85,0,18.9,4.02,23.93,11.47,4.22,6.23,4.83,13.07,4.83,22.32v51.69h-14.48v-51.29c0-5.03-.4-10.86-3.82-15.28-2.82-3.62-7.24-6.04-13.68-6.04-5.03,0-10.46,1.41-14.68,6.44-5.63,6.64-6.03,16.49-6.03,22.53v43.65h-14.48v-83.47Z"/>
        <path class="cls-1" d="m1681.62,153.2l24.94,56.31,24.94-56.31h16.09l-41.03,88.9-41.03-88.9h16.09Z"/>
        <path class="cls-1" d="m1825.82,153.2h14.48v83.47h-14.48v-11.67c-4.83,6.24-13.88,14.08-28.56,14.08-21.12,0-40.63-14.88-40.63-44.25s19.31-43.65,40.63-43.65c16.09,0,24.74,8.85,28.56,13.88v-11.87Zm-54.3,41.63c0,17.9,10.05,31.37,27.35,31.37s27.76-14.68,27.76-31.17c0-21.52-14.88-30.97-27.76-30.97-14.28,0-27.35,10.46-27.35,30.77Z"/>
        <path class="cls-1" d="m1905.04,172.51c-2.01-4.83-6.24-8.45-11.67-8.45s-10.06,3.02-10.06,9.45c0,6.03,4.02,7.85,13.47,11.87,12.07,5.03,17.7,8.85,20.92,12.87,3.62,4.42,4.43,8.85,4.43,13.47,0,17.5-12.67,27.35-28.76,27.35-3.42,0-22.12-.4-29.16-21.32l12.47-5.23c1.61,4.42,6.44,13.67,16.89,13.67,9.45,0,13.68-7.04,13.68-13.27,0-7.84-5.63-10.46-13.47-13.87-10.06-4.43-16.49-7.65-20.31-12.27-3.22-4.02-3.82-8.04-3.82-12.27,0-14.68,10.26-23.33,24.33-23.33,4.42,0,16.29.81,22.93,15.08l-11.87,6.24Z"/>
        <path class="cls-1" d="m2027.47,116.6v120.07h-14.88v-120.07h-32.58v-14.08h80.05v14.08h-32.58Z"/>
        <path class="cls-1" d="m2062.45,195.23c0-25.34,18.7-44.05,44.25-44.05s44.25,18.7,44.25,44.05-18.91,43.85-44.25,43.85-44.25-18.5-44.25-43.85Zm14.88,0c0,20.52,14.48,30.97,29.36,30.97s29.36-10.66,29.36-30.97-14.08-31.17-29.36-31.17-29.36,10.86-29.36,31.17Z"/>
        <path class="cls-1" d="m2189.75,90.05v94.13l30.57-30.97h18.91l-35.8,35.8,42.24,47.67h-18.91l-33.39-38.01-3.62,3.62v34.39h-14.48V90.05h14.48Z"/>
        <path class="cls-1" d="m2292.91,228.82l-38.42-75.62h16.49l29.56,59.73,27.15-59.73h16.09l-61.34,129.72h-16.09l26.55-54.1Z"/>
        <path class="cls-1" d="m2350.22,195.23c0-25.34,18.7-44.05,44.25-44.05s44.25,18.7,44.25,44.05-18.9,43.85-44.25,43.85-44.25-18.5-44.25-43.85Zm14.88,0c0,20.52,14.48,30.97,29.36,30.97s29.36-10.66,29.36-30.97-14.08-31.17-29.36-31.17-29.36,10.86-29.36,31.17Z"/>
      </g>
      <path class="cls-1" d="m371.23,252.65L228.22,4.96C226.43,1.86,223.23,0,219.65,0s-6.77,1.85-8.56,4.94l-24.81,42.97-24.82-42.99c-1.78-3.09-4.98-4.93-8.54-4.93-3.58,0-6.78,1.86-8.57,4.96L1.34,252.65c-1.79,3.1-1.79,6.79,0,9.89,1.79,3.1,4.99,4.94,8.56,4.94h49.62l-24.82,42.99c-1.79,3.1-1.79,6.79,0,9.88,1.78,3.09,4.98,4.93,8.56,4.93h286.07c3.57,0,6.76-1.84,8.54-4.93,1.79-3.1,1.79-6.8,0-9.9l-24.81-42.97h49.62c3.57,0,6.78-1.85,8.56-4.94s1.79-6.79,0-9.89Zm-104.95,3.54h-26.5l-13.61-23.57,13.25-22.95h27.22l13.25,22.94-13.61,23.57Zm20.12-12.28l7.09,12.28h-14.18l7.09-12.28Zm-53.5,70.08h-26.5l-13.61-23.57,13.25-22.95h27.21l13.25,22.95-13.61,23.57Zm20.12-12.28l7.09,12.28h-14.18l7.09-12.28Zm-126.97-11.29l13.25-22.95h27.21l13.25,22.95-13.61,23.57h-26.5l-13.61-23.57Zm.57,23.57h-14.18l7.09-12.28,7.09,12.28Zm-33.94-81.37l13.25-22.94h27.22l13.25,22.94-13.61,23.57h-26.5l-13.61-23.57Zm.57,23.57h-14.18l7.09-12.28,7.09,12.28Zm-33.94-81.37l13.25-22.95h27.22l13.25,22.94-13.61,23.57h-26.49l-13.61-23.57Zm.57,23.57h-14.18l7.09-12.28,7.09,12.28Zm73.26-104.32l13.25,22.94-13.61,23.57h-26.49l-13.61-23.57,13.25-22.94h27.21Zm-20.7-11.29l7.09-12.28,7.09,12.28h-14.18Zm154.19,11.29l13.25,22.94-13.61,23.57h-26.49l-13.61-23.57,13.25-22.94h27.22Zm-20.7-11.29l7.09-12.28,7.09,12.28h-14.18Zm40.46,45.52l7.09,12.28h-14.18l7.09-12.28Zm-53.5,70.08h-26.5l-13.61-23.57,13.25-22.95h27.22l13.25,22.94-13.61,23.57Zm20.13-12.28l7.09,12.28h-14.18l7.09-12.28Zm-53.5,70.08h-26.5l-13.61-23.57,13.25-22.94h27.21l13.25,22.95-13.61,23.57Zm20.12-12.28l7.09,12.28h-14.17l7.09-12.28Zm-26.64,23.57l-6.73,11.66-6.73-11.66h13.46Zm-33.02-11.29h-14.18l7.09-12.28,7.09,12.28Zm-33.94-81.37l13.25-22.94h27.22l13.25,22.95-13.61,23.57h-26.5l-13.61-23.57Zm.57,23.57h-14.18l7.09-12.28,7.09,12.28Zm-7.09-34.86l-6.73-11.65h13.46l-6.73,11.65Zm26.28-22.94l7.09-12.28,7.09,12.28h-14.18Zm33.73,11.29h13.46l-6.73,11.66-6.73-11.66Zm6.73,34.24l7.09,12.28h-14.18l7.09-12.28Zm-26.64,23.57l-6.73,11.66-6.73-11.66h13.46Zm53.29,0h13.46l-6.73,11.66-6.73-11.66Zm-.36-69.1l7.09-12.28,7.09,12.28h-14.18Zm33.73,11.29h13.46l-6.73,11.65-6.73-11.65Zm-26.64-46.15l-6.73-11.65h13.46l-6.73,11.65Zm-6.52,11.29l-13.61,23.57h-26.5l-13.61-23.57,13.25-22.94h27.22l13.25,22.94Zm-60.23-11.29l-6.73-11.65h13.46l-6.73,11.65Zm-59.66,34.86h-14.18l7.09-12.28,7.09,12.28Zm-.36,69.1l-6.73,11.65-6.73-11.65h13.46Zm33.38,57.8l-6.73,11.66-6.73-11.66h13.46Zm60.02,34.24l7.09,12.28h-14.18l7.09-12.28Zm60.01-34.24h13.46l-6.73,11.66-6.73-11.66Zm33.38-57.8h13.46l-6.73,11.65-6.73-11.65Zm-6.52-11.29l-13.61-23.57,13.25-22.94h27.22l13.25,22.94-13.61,23.57h-26.49Zm46.62-12.28l7.09,12.28h-14.18l7.09-12.28ZM219.66,12.7l26.85,46.51-13.61,23.57h-26.49l-13.61-23.57,26.85-46.51Zm-26.28,70.08h-14.18l7.09-12.28,7.09,12.28ZM152.91,12.7l26.85,46.51-13.61,23.57h-26.5l-13.61-23.57,26.86-46.52ZM12.33,256.2l26.85-46.51h27.22l13.25,22.94-13.61,23.57H12.33Zm60.23,11.29h27.21l13.25,22.95-13.61,23.57h-53.71l26.86-46.51Zm254.31,46.51h-53.71l-13.61-23.57,13.25-22.95h27.21l26.86,46.51Zm-20.34-57.8l-13.61-23.57,13.25-22.94h27.22l26.85,46.51h-53.71Z"/>
    </g>
  </g>
</svg>