<svg xmlns="http://www.w3.org/2000/svg" version="1.1" xmlns:xlink="http://www.w3.org/1999/xlink" xmlns:svgjs="http://svgjs.dev/svgjs" width="1000" height="1000"><g clip-path="url(#SvgjsClipPath1194)"><rect width="1000" height="1000" fill="#000000"></rect><g transform="matrix(2.1471611081273028,0,0,2.1471611081273028,99.99999999999997,150.77497083282933)"><svg xmlns="http://www.w3.org/2000/svg" version="1.1" xmlns:xlink="http://www.w3.org/1999/xlink" xmlns:svgjs="http://svgjs.dev/svgjs" width="372.58499" height="325.29001"><svg id="_レイヤー_2" data-name="レイヤー 2" viewBox="0 0 372.58499 325.29" version="1.1" sodipodi:docname="OCT新ロゴ_黒1段_1.svg" inkscape:version="1.4 (86a8ad7, 2024-10-11)" width="372.58499" height="325.29001" xmlns:inkscape="http://www.inkscape.org/namespaces/inkscape" xmlns:sodipodi="http://sodipodi.sourceforge.net/DTD/sodipodi-0.dtd" xmlns="http://www.w3.org/2000/svg" xmlns:svg="http://www.w3.org/2000/svg">
  <sodipodi:namedview id="namedview21" pagecolor="#000000" bordercolor="#000000" borderopacity="0.25" inkscape:showpageshadow="2" inkscape:pageopacity="0.0" inkscape:pagecheckerboard="0" inkscape:deskcolor="#d1d1d1" inkscape:zoom="1.4142136" inkscape:cx="572.04938" inkscape:cy="182.08" inkscape:window-width="1920" inkscape:window-height="1009" inkscape:window-x="1912" inkscape:window-y="118" inkscape:window-maximized="1" inkscape:current-layer="g21"></sodipodi:namedview>
  <defs id="defs1">
    <style id="style1">
      .cls-1 {
        fill: #231815;
        stroke-width: 0px;
      }
    </style>
  <clipPath id="SvgjsClipPath1194"><rect width="1000" height="1000" x="0" y="0" rx="200" ry="200"></rect></clipPath></defs>
  <g id="_レイヤー_1-2" data-name="レイヤー 1">
    <g id="g21">
      <g id="g20"></g>
      <path class="cls-1" d="M 371.23,252.65 228.22,4.96 C 226.43,1.86 223.23,0 219.65,0 c -3.58,0 -6.77,1.85 -8.56,4.94 L 186.28,47.91 161.46,4.92 c -1.78,-3.09 -4.98,-4.93 -8.54,-4.93 -3.58,0 -6.78,1.86 -8.57,4.96 L 1.34,252.65 c -1.79,3.1 -1.79,6.79 0,9.89 1.79,3.1 4.99,4.94 8.56,4.94 H 59.52 L 34.7,310.47 c -1.79,3.1 -1.79,6.79 0,9.88 1.78,3.09 4.98,4.93 8.56,4.93 h 286.07 c 3.57,0 6.76,-1.84 8.54,-4.93 1.79,-3.1 1.79,-6.8 0,-9.9 l -24.81,-42.97 h 49.62 c 3.57,0 6.78,-1.85 8.56,-4.94 1.79,-3.1 1.79,-6.79 0,-9.89 z m -104.95,3.54 h -26.5 l -13.61,-23.57 13.25,-22.95 h 27.22 l 13.25,22.94 -13.61,23.57 z m 20.12,-12.28 7.09,12.28 h -14.18 z m -53.5,70.08 h -26.5 l -13.61,-23.57 13.25,-22.95 h 27.21 l 13.25,22.95 -13.61,23.57 z m 20.12,-12.28 7.09,12.28 H 245.93 Z M 126.05,290.42 139.3,267.47 h 27.21 l 13.25,22.95 -13.61,23.57 h -26.5 l -13.61,-23.57 z m 0.57,23.57 h -14.18 l 7.09,-12.28 z m -33.94,-81.37 13.25,-22.94 h 27.22 l 13.25,22.94 -13.61,23.57 h -26.5 z m 0.57,23.57 H 79.07 l 7.09,-12.28 z M 59.31,174.82 72.56,151.87 h 27.22 l 13.25,22.94 -13.61,23.57 H 72.93 L 59.32,174.81 Z m 0.57,23.57 H 45.7 l 7.09,-12.28 z m 73.26,-104.32 13.25,22.94 -13.61,23.57 H 106.29 L 92.68,117.01 105.93,94.07 Z m -20.7,-11.29 7.09,-12.28 7.09,12.28 z m 154.19,11.29 13.25,22.94 -13.61,23.57 h -26.49 l -13.61,-23.57 13.25,-22.94 h 27.22 z m -20.7,-11.29 7.09,-12.28 7.09,12.28 z m 40.46,45.52 7.09,12.28 H 279.3 Z m -53.5,70.08 h -26.5 l -13.61,-23.57 13.25,-22.95 h 27.22 l 13.25,22.94 -13.61,23.57 z m 20.13,-12.28 7.09,12.28 h -14.18 z m -53.5,70.08 h -26.5 l -13.61,-23.57 13.25,-22.94 h 27.21 l 13.25,22.95 -13.61,23.57 z m 20.12,-12.28 7.09,12.28 h -14.17 l 7.09,-12.28 z m -26.64,23.57 -6.73,11.66 -6.73,-11.66 z M 159.98,256.18 H 145.8 l 7.09,-12.28 z m -33.94,-81.37 13.25,-22.94 h 27.22 l 13.25,22.95 -13.61,23.57 h -26.5 l -13.61,-23.57 z m 0.57,23.57 h -14.18 l 7.09,-12.28 z m -7.09,-34.86 -6.73,-11.65 h 13.46 z m 26.28,-22.94 7.09,-12.28 7.09,12.28 z m 33.73,11.29 h 13.46 l -6.73,11.66 z m 6.73,34.24 7.09,12.28 h -14.18 z m -26.64,23.57 -6.73,11.66 -6.73,-11.66 z m 53.29,0 h 13.46 l -6.73,11.66 z m -0.36,-69.1 7.09,-12.28 7.09,12.28 z m 33.73,11.29 h 13.46 l -6.73,11.65 z m -26.64,-46.15 -6.73,-11.65 h 13.46 z m -6.52,11.29 -13.61,23.57 h -26.5 L 159.4,117.01 172.65,94.07 h 27.22 z m -60.23,-11.29 -6.73,-11.65 h 13.46 z M 93.23,140.58 H 79.05 l 7.09,-12.28 z m -0.36,69.1 -6.73,11.65 -6.73,-11.65 z m 33.38,57.8 -6.73,11.66 -6.73,-11.66 z m 60.02,34.24 7.09,12.28 h -14.18 z m 60.01,-34.24 h 13.46 l -6.73,11.66 z m 33.38,-57.8 h 13.46 l -6.73,11.65 z m -6.52,-11.29 -13.61,-23.57 13.25,-22.94 H 300 l 13.25,22.94 -13.61,23.57 h -26.49 z m 46.62,-12.28 7.09,12.28 H 312.67 Z M 219.66,12.7 246.51,59.21 232.9,82.78 H 206.41 L 192.8,59.21 219.65,12.7 Z M 193.38,82.78 H 179.2 L 186.29,70.5 Z M 152.91,12.7 179.76,59.21 166.15,82.78 h -26.5 L 126.04,59.21 152.9,12.69 Z M 12.33,256.2 39.18,209.69 H 66.4 l 13.25,22.94 -13.61,23.57 z m 60.23,11.29 h 27.21 l 13.25,22.95 -13.61,23.57 H 45.7 L 72.56,267.5 Z M 326.87,314 h -53.71 l -13.61,-23.57 13.25,-22.95 h 27.21 l 26.86,46.51 z m -20.34,-57.8 -13.61,-23.57 13.25,-22.94 h 27.22 l 26.85,46.51 z" id="path21" style="fill:#ffffff"></path>
    </g>
  </g>
</svg></svg></g></g></svg>