<svg width="720" height="280" viewBox="0 0 720 280" fill="none" xmlns="http://www.w3.org/2000/svg">
<path fill-rule="evenodd" clip-rule="evenodd" d="M169.17 128.8L222.265 183.309L200.453 205.8L200.357 205.702H200.453V187.532H182.754V169.363H165.056V151.193H147.357L169.17 128.8ZM221.287 75.4446C224.717 71.9185 230.339 71.9185 233.769 75.4446L246.728 88.7655C245.394 90.4307 244.632 92.4876 244.632 94.8383C244.632 100.225 248.824 104.535 254.065 104.535C256.257 104.535 258.353 103.752 259.973 102.38L274.17 116.975C277.601 120.501 277.601 126.182 274.17 129.806L227.48 177.8L174.596 123.439L221.287 75.4446Z" fill="#2E3551"/>
<path d="M318.733 161.668V134.178H311.826V120.137H318.733V105.357H335.173V120.137H348.78V134.178H335.173V158.978C335.173 162.762 336.797 164.595 340.457 164.595C343.29 164.6 346.079 163.899 348.574 162.555V175.739C344.648 178.065 340.146 179.233 335.587 179.108C325.551 179.108 318.733 175.088 318.733 161.668Z" fill="#2E3551"/>
<path d="M353.736 149.46V149.223C353.736 132.67 365.543 119.043 382.367 119.043C401.73 119.043 410.585 134.089 410.585 150.524C410.585 151.825 410.585 153.48 410.348 154.869H370.059C370.575 158.187 372.312 161.192 374.928 163.293C377.545 165.393 380.851 166.437 384.197 166.22C386.819 166.259 389.421 165.754 391.839 164.736C394.257 163.719 396.439 162.211 398.247 160.308L407.662 168.733C404.838 172.251 401.232 175.06 397.133 176.939C393.034 178.817 388.554 179.711 384.049 179.552C366.605 179.433 353.736 167.196 353.736 149.46ZM394.469 144.583C393.495 137.222 389.185 132.256 382.249 132.256C375.313 132.256 371.033 137.104 369.734 144.583H394.469Z" fill="#2E3551"/>
<path d="M353.736 149.46V149.223C353.736 132.67 365.543 119.043 382.367 119.043C401.73 119.043 410.585 134.089 410.585 150.524C410.585 151.825 410.585 153.48 410.348 154.869H370.059C370.575 158.187 372.312 161.192 374.928 163.293C377.545 165.393 380.851 166.437 384.197 166.22C386.819 166.259 389.421 165.754 391.839 164.736C394.257 163.719 396.439 162.211 398.247 160.308L407.662 168.733C404.838 172.251 401.232 175.06 397.133 176.939C393.034 178.817 388.554 179.711 384.049 179.552C366.605 179.433 353.736 167.196 353.736 149.46ZM394.469 144.583C393.495 137.222 389.185 132.256 382.249 132.256C375.313 132.256 371.033 137.104 369.734 144.583H394.469Z" fill="#2E3551"/>
<path d="M419.117 99.12H435.528V141.213L454.773 120.137H474.431L452.382 142.957L475.198 178.133H456.455L441.313 154.485L435.587 160.397V178.133H419.117V99.12Z" fill="#2E3551"/>
<path d="M475.965 149.46V149.223C475.965 132.67 487.771 119.043 504.596 119.043C523.929 119.043 532.784 134.089 532.784 150.524C532.784 151.825 532.784 153.48 532.577 154.869H492.258C492.781 158.19 494.524 161.195 497.145 163.295C499.766 165.395 503.076 166.438 506.426 166.22C509.048 166.255 511.648 165.748 514.066 164.731C516.483 163.714 518.665 162.208 520.475 160.308L529.862 168.733C527.04 172.254 523.435 175.066 519.335 176.945C515.236 178.823 510.754 179.716 506.249 179.552C488.922 179.433 475.965 167.196 475.965 149.46ZM516.786 144.583C515.812 137.222 511.502 132.256 504.596 132.256C497.689 132.256 493.35 137.104 492.051 144.583H516.786Z" fill="#2E3551"/>
<path d="M543.262 161.668V134.178H536.355V120.137H543.262V105.357H559.762V120.137H573.369V134.178H559.762V158.978C559.762 162.762 561.356 164.594 565.045 164.594C567.869 164.6 570.649 163.899 573.133 162.555V175.738C569.22 178.068 564.726 179.237 560.175 179.108C550.081 179.108 543.262 175.088 543.262 161.668Z" fill="#2E3551"/>
</svg>
